# xmcd CD database file
#
# Track frame offsets:
#	150
#	22033
#	41673
#	63518
#	85050
#
# Disc length: 1287 seconds
#
# Revision: 0
# Processed by: cddbd v1.5.1PL0 Copyright (c) Steve Scherf et al.
# Submitted via: CDex 1.51
#
DISCID=3a050505
DTITLE=サスケ - 永遠の夏／輝く明日の方へ
DYEAR=2005
DGENRE=Pop
TTITLE0=永遠の夏
TTITLE1=輝く明日の方へ
TTITLE2=永遠の夏 (Instrumental)
TTITLE3=輝く明日の方へ (Instrumental)
TTITLE4=bonus track
EXTD=YEAR: 2005/07/06
EXTT0=
EXTT1=
EXTT2=
EXTT3=
EXTT4=
PLAYORDER=
